<svg id="visual" viewBox="0 0 900 50" width="900" height="50" xmlns="http://www.w3.org/2000/svg" xmlns:xlink="http://www.w3.org/1999/xlink" version="1.1"><rect x="0" y="0" width="900" height="50" fill="#ffffff"></rect><path d="M0 29L30 29.5C60 30 120 31 180 33.2C240 35.3 300 38.7 360 39.5C420 40.3 480 38.7 540 37.7C600 36.7 660 36.3 720 33.8C780 31.3 840 26.7 870 24.3L900 22L900 0L870 0C840 0 780 0 720 0C660 0 600 0 540 0C480 0 420 0 360 0C300 0 240 0 180 0C120 0 60 0 30 0L0 0Z" fill="#ffbede"></path><path d="M0 15L30 17C60 19 120 23 180 25.5C240 28 300 29 360 26.8C420 24.7 480 19.3 540 17.5C600 15.7 660 17.3 720 19.5C780 21.7 840 24.3 870 25.7L900 27L900 0L870 0C840 0 780 0 720 0C660 0 600 0 540 0C480 0 420 0 360 0C300 0 240 0 180 0C120 0 60 0 30 0L0 0Z" fill="#ff87c1"></path><path d="M0 6L30 5.8C60 5.7 120 5.3 180 5.2C240 5 300 5 360 5.3C420 5.7 480 6.3 540 7.8C600 9.3 660 11.7 720 11.5C780 11.3 840 8.7 870 7.3L900 6L900 0L870 0C840 0 780 0 720 0C660 0 600 0 540 0C480 0 420 0 360 0C300 0 240 0 180 0C120 0 60 0 30 0L0 0Z" fill="#ff3e9f"></path></svg>