<svg id="visual" viewBox="0 0 900 50" width="900" height="50" xmlns="http://www.w3.org/2000/svg" xmlns:xlink="http://www.w3.org/1999/xlink" version="1.1"><rect x="0" y="0" width="900" height="50" fill="#ffffff"></rect><path d="M0 17L21.5 18C43 19 86 21 128.8 20.2C171.7 19.3 214.3 15.7 257.2 14.3C300 13 343 14 385.8 13.3C428.7 12.7 471.3 10.3 514.2 10.7C557 11 600 14 642.8 16.3C685.7 18.7 728.3 20.3 771.2 21.3C814 22.3 857 22.7 878.5 22.8L900 23L900 51L878.5 51C857 51 814 51 771.2 51C728.3 51 685.7 51 642.8 51C600 51 557 51 514.2 51C471.3 51 428.7 51 385.8 51C343 51 300 51 257.2 51C214.3 51 171.7 51 128.8 51C86 51 43 51 21.5 51L0 51Z" fill="#ffbedd"></path><path d="M0 17L21.5 17.2C43 17.3 86 17.7 128.8 19.2C171.7 20.7 214.3 23.3 257.2 22.8C300 22.3 343 18.7 385.8 16.8C428.7 15 471.3 15 514.2 15.3C557 15.7 600 16.3 642.8 16.7C685.7 17 728.3 17 771.2 18.3C814 19.7 857 22.3 878.5 23.7L900 25L900 51L878.5 51C857 51 814 51 771.2 51C728.3 51 685.7 51 642.8 51C600 51 557 51 514.2 51C471.3 51 428.7 51 385.8 51C343 51 300 51 257.2 51C214.3 51 171.7 51 128.8 51C86 51 43 51 21.5 51L0 51Z" fill="#ffaad3"></path><path d="M0 23L21.5 24.8C43 26.7 86 30.3 128.8 32.2C171.7 34 214.3 34 257.2 33C300 32 343 30 385.8 29C428.7 28 471.3 28 514.2 28.5C557 29 600 30 642.8 29.2C685.7 28.3 728.3 25.7 771.2 26C814 26.3 857 29.7 878.5 31.3L900 33L900 51L878.5 51C857 51 814 51 771.2 51C728.3 51 685.7 51 642.8 51C600 51 557 51 514.2 51C471.3 51 428.7 51 385.8 51C343 51 300 51 257.2 51C214.3 51 171.7 51 128.8 51C86 51 43 51 21.5 51L0 51Z" fill="#ff95c8"></path><path d="M0 38L21.5 37.5C43 37 86 36 128.8 34.5C171.7 33 214.3 31 257.2 30.5C300 30 343 31 385.8 32.3C428.7 33.7 471.3 35.3 514.2 36.5C557 37.7 600 38.3 642.8 38C685.7 37.7 728.3 36.3 771.2 36C814 35.7 857 36.3 878.5 36.7L900 37L900 51L878.5 51C857 51 814 51 771.2 51C728.3 51 685.7 51 642.8 51C600 51 557 51 514.2 51C471.3 51 428.7 51 385.8 51C343 51 300 51 257.2 51C214.3 51 171.7 51 128.8 51C86 51 43 51 21.5 51L0 51Z" fill="#ff7fbc"></path><path d="M0 41L21.5 40.8C43 40.7 86 40.3 128.8 39.7C171.7 39 214.3 38 257.2 37.8C300 37.7 343 38.3 385.8 39.7C428.7 41 471.3 43 514.2 43C557 43 600 41 642.8 40C685.7 39 728.3 39 771.2 39.5C814 40 857 41 878.5 41.5L900 42L900 51L878.5 51C857 51 814 51 771.2 51C728.3 51 685.7 51 642.8 51C600 51 557 51 514.2 51C471.3 51 428.7 51 385.8 51C343 51 300 51 257.2 51C214.3 51 171.7 51 128.8 51C86 51 43 51 21.5 51L0 51Z" fill="#ff67b0"></path></svg>